<svg width="512" height="512" viewBox="0 0 512 512" fill="none" xmlns="http://www.w3.org/2000/svg">
<path d="M165.425 154.831L72.7116 221.37C53.2463 235.34 48.8055 262.425 62.7928 281.866C76.78 301.308 103.899 305.743 123.364 291.773L216.077 225.234C235.542 211.264 239.983 184.179 225.996 164.738C212.008 145.296 184.89 140.861 165.425 154.831Z" fill="#EA4335" stroke="#1E1E1E" stroke-width="2" stroke-miterlimit="10"/>
<path d="M122.897 220.852C103.432 206.882 76.3133 211.317 62.326 230.758C48.3388 250.2 52.7797 277.285 72.245 291.255L164.958 357.794C184.423 371.764 211.542 367.328 225.529 347.887C239.516 328.446 235.075 301.361 215.61 287.391L122.897 220.852Z" fill="#4285F4" stroke="#1E1E1E" stroke-width="2" stroke-miterlimit="10"/>
<path d="M389.466 221.391L296.753 287.93C277.288 301.9 272.847 328.985 286.834 348.426C300.822 367.868 327.94 372.303 347.405 358.333L440.118 291.794C459.584 277.824 464.024 250.739 450.037 231.298C436.05 211.856 408.931 207.421 389.466 221.391Z" fill="#FBBC04" stroke="#1E1E1E" stroke-width="2" stroke-miterlimit="10"/>
<path d="M346.899 154.295C327.434 140.325 300.316 144.76 286.328 164.201C272.341 183.643 276.782 210.728 296.247 224.698L388.96 291.237C408.425 305.207 435.544 300.771 449.531 281.33C463.518 261.889 459.078 234.804 439.612 220.834L346.899 154.295Z" fill="#34A853" stroke="#1E1E1E" stroke-width="2" stroke-miterlimit="10"/>
</svg>
